<svg xmlns="http://www.w3.org/2000/svg" viewBox="0 0 113.67 56" width="114" height="56"><g id="Ebene_2" data-name="Ebene 2"><g id="Ebene_1-2" data-name="Ebene 1"><g id="Ebene_2-2" data-name="Ebene 2"><g id="Ebene_1-2-2" data-name="Ebene 1-2"><path d="M29,42.77,8.72,44.18V16.27l19.83-1.38v4.37l-14.23,1v7.36l13.22-.92V31.1L14.32,32v7.36l14.64-1Z" fill="#056d85"/><path d="M53.43,21.37l-5.74.4c-.33-2.81-1.92-4.48-4.84-4.28-2.24.16-3.94,1.33-3.94,3.6s1.5,3.41,6,4.15c6.18,1,8.94,3.62,8.94,8.12,0,5.25-4.83,8.62-10.34,9-6.71.47-11.1-2.18-11.63-8l5.75-.4a5.14,5.14,0,0,0,5.81,4.25C46,38,48,36.48,48,34.33,48,32,46.55,30.71,42.4,30c-5.74-1-9.35-2.71-9.35-7.85s4.65-8.49,10-8.87C49.77,12.85,52.82,16.44,53.43,21.37Z" fill="#056d85"/><path d="M78.71,39.31,58.46,40.72V12.81L78.3,11.43v4.36l-14.23,1v7.34l13.22-.92v4.41l-13.22.92v7.38l14.64-1Z" fill="#056d85"/><path d="M92,28.42l-11.13.77v-.57l6-6.32c3-3.13,4-4.64,4-6.5A3.42,3.42,0,0,0,87,12.16c-2.54.18-4.15,2-4.43,4.67v.25l-.94.06v-.25A5.78,5.78,0,0,1,87,11.34C90.31,11.11,92,13.1,92,15.66c0,2.22-1.44,4.16-4.38,7.18l-5.25,5.44,9.71-.7Z" fill="#067891"/><path d="M105.86,18.91c0,5.17-1.54,9-5.82,9.29s-5.82-3.35-5.82-8.48,1.57-9,5.83-9.3S105.86,13.79,105.86,18.91Zm-1,.07c0-4.66-1.22-8-4.78-7.74S95.26,15,95.26,19.65s1.24,8,4.78,7.74,4.78-3.75,4.78-8.43Z" fill="#067891"/><path d="M111.64,2.17V44l-12.42.87v7.56L87.63,45.72,2,51.67V9.8L111.64,2.17m2-2.17-2.18.15L1.88,7.78,0,7.91V53.85l2.17-.15,85-5.92,11,6.44,3,1.78V46.81l10.54-.74,1.89-.13V0Z" fill="#056d85"/></g></g></g></g></svg>